<svg version="1.1" viewBox="0 0 124 124" class="svg-icon svg-fill"><g fill="none" fill-rule="evenodd"><path pid="1" d="M61.991 62l20.747 11.937-20.747 11.959-20.658-11.948L61.991 62zm41.342-23.93L124 50.007v23.958l-20.667-11.9V38.07zm-62-35.895V26.17l-20.666 11.9V14.112L41.333 2.175zM20.667 85.93L0 73.993V50.035l20.667 11.9V85.93zm61.99-59.825L62 14.157 82.658 2.21l20.747 11.958-20.747 11.937zm-41.332 71.79l20.747 11.937-20.747 11.958-20.658-11.947 20.658-11.948zm41.342 23.93V97.83l20.666-11.9v23.958l-20.666 11.937z" fill="#624DE3"></path><path pid="2" fill="#AB9FF4" d="M62 38.07v23.995l20.667 11.9V50.007z"></path><path pid="3" fill="#8D7CF6" d="M62 38.07v23.995l-20.667 11.9V50.007z"></path><path pid="4" d="M103.325 62l20.747 11.937-20.747 11.959-20.658-11.948L103.325 62zm-82.667 0L0 50.052l20.658-11.948 20.747 11.959L20.658 62zm62.009-11.965V26.041l20.666-11.9v23.957L82.667 50.035zm-41.334 23.93v23.994l-20.666 11.9V85.903l20.666-11.937zm41.334 47.86L62 109.888V85.93l20.667 11.9v23.995zM41.333 2.175L62 14.112V38.07l-20.667-11.9V2.175z" fill="#AB9FF4"></path></g></svg>